HIERARCHY
ROOT Hips
{
	OFFSET 0.000000 0.000000 0.000000 
	CHANNELS 6 Xposition Yposition Zposition Zrotation Yrotation Xrotation
	JOINT LeftUpLeg
	{
		OFFSET 1.363060 -1.794630 0.839290 
		CHANNELS 3 Zrotation Yrotation Xrotation
		JOINT LeftLeg
		{
			OFFSET 2.448110 -6.726130 0.000000 
			CHANNELS 3 Zrotation Yrotation Xrotation
			JOINT LeftFoot
			{
				OFFSET 2.562200 -7.039590 0.000000 
				CHANNELS 3 Zrotation Yrotation Xrotation
				JOINT LeftToeBase
				{
					OFFSET 0.157640 -0.433110 2.322550 
					CHANNELS 3 Zrotation Yrotation Xrotation
					End Site
					{
						OFFSET 0.000000 0.000000 0.000000 
					}
				}
			}
		}
	}
	JOINT RightUpLeg
	{
		OFFSET -1.305520 -1.794630 0.839290 
		CHANNELS 3 Zrotation Yrotation Xrotation
		JOINT RightLeg
		{
			OFFSET -2.542530 -6.985550 0.000000 
			CHANNELS 3 Zrotation Yrotation Xrotation
			JOINT RightFoot
			{
				OFFSET -2.568260 -7.056230 0.000000 
				CHANNELS 3 Zrotation Yrotation Xrotation
				JOINT RightToeBase
				{
					OFFSET -0.164730 -0.452590 2.363150 
					CHANNELS 3 Zrotation Yrotation Xrotation
					End Site
					{
						OFFSET 0.000000 0.000000 0.000000 
					}
				}
			}
		}
	}
	JOINT Spine
	{
		OFFSET 0.028270 2.035590 -0.193380 
		CHANNELS 3 Zrotation Yrotation Xrotation
		JOINT Spine1
		{
			OFFSET 0.056720 2.048850 -0.042750 
			CHANNELS 3 Zrotation Yrotation Xrotation
			JOINT Neck1
			{
				OFFSET -0.054170 1.746240 0.172020 
				CHANNELS 3 Zrotation Yrotation Xrotation
				JOINT Head
				{
					OFFSET 0.104070 1.761360 -0.123970 
					CHANNELS 3 Zrotation Yrotation Xrotation
					End Site
					{
						OFFSET 0.000000 0.000000 0.000000 
					}
				}
			}
			JOINT LeftArm
			{
				OFFSET 3.362410 1.200890 -0.311210 
				CHANNELS 3 Zrotation Yrotation Xrotation
				JOINT LeftForeArm
				{
					OFFSET 4.983000 -0.000000 -0.000000 
					CHANNELS 3 Zrotation Yrotation Xrotation
					JOINT LeftHand
					{
						OFFSET 3.483560 -0.000000 -0.000000 
						CHANNELS 3 Zrotation Yrotation Xrotation
						JOINT LeftHandIndex1
						{
							OFFSET 0.715260 -0.000000 -0.000000 
							CHANNELS 3 Zrotation Yrotation Xrotation
							End Site
							{
								OFFSET 0.000000 0.000000 0.000000 
							}
						}
					}
				}
			}
			JOINT RightArm
			{
				OFFSET -3.136600 1.374050 -0.404650 
				CHANNELS 3 Zrotation Yrotation Xrotation
				JOINT RightForeArm
				{
					OFFSET -5.241900 -0.000000 -0.000000 
					CHANNELS 3 Zrotation Yrotation Xrotation
					JOINT RightHand
					{
						OFFSET -3.444170 -0.000000 -0.000000 
						CHANNELS 3 Zrotation Yrotation Xrotation
						JOINT RightHandIndex1
						{
							OFFSET -0.622530 -0.000000 -0.000000 
							CHANNELS 3 Zrotation Yrotation Xrotation
							End Site
							{
								OFFSET 0.000000 0.000000 0.000000 
							}
						}
					}
				}
			}
		}
	}
}
MOTION
Frames: 18
Frame Time: 0.041667
1.510961 17.936645 -28.693792 1.553426 -1.028595 1.706082 -21.250353 -6.980207 -8.732116 -0.035016 6.057172 24.014687 0.354889 -0.374324 1.024312 0.001300 0.229900 0.631600 16.184524 10.172151 -34.424023 -7.841672 -15.313452 52.084874 1.979179 -8.451342 4.867651 -0.006400 -0.514700 1.414300 2.290333 -1.452928 3.005635 2.486382 -0.899441 -8.904090 2.926306 -5.219420 21.374644 -0.422900 -2.088600 10.771500 -76.609375 -5.035116 28.920273 14.758884 -24.670557 -3.483416 -0.705333 -0.962088 -7.133347 -7.125000 0.000000 0.000000 74.967586 -0.071101 5.417049 -8.830755 19.602204 -1.881649 1.142149 -0.575060 7.226425 7.125000 0.000000 0.000000 
1.501924 17.941163 -28.531843 1.633496 -0.663847 1.900521 -21.266328 -6.859250 -8.198520 -0.099404 5.897615 23.637663 0.355845 -0.397431 1.022614 0.001100 0.211800 0.581900 15.914189 9.899481 -34.845113 -7.021959 -14.834092 49.328838 2.152169 -9.056793 5.536808 -0.002600 -0.328700 0.903100 3.611741 -2.737168 1.550097 4.249139 -1.403978 -10.071091 3.095611 -3.457140 20.244975 0.228000 -1.488300 9.572200 -78.183471 -2.055526 26.554566 15.059526 -25.042105 -3.616111 -0.705701 -0.893669 -6.626189 -7.125000 0.000000 0.000000 72.755083 -2.729825 8.647915 -8.743661 19.735016 -1.874475 1.166108 -0.555526 6.606387 7.125000 0.000000 0.000000 
1.493290 17.937850 -28.373507 1.733109 -0.454279 2.033511 -21.287280 -6.639428 -7.701827 -0.167192 5.743706 23.252508 0.395788 -0.541145 0.982673 0.000000 0.032900 0.090400 15.635934 9.753630 -35.211003 -6.268678 -14.318705 46.690552 2.372810 -9.806250 6.168734 -0.003900 -0.405700 1.114900 3.067488 -2.402109 2.203149 3.552591 -1.314585 -9.481967 3.201042 -4.130382 20.762004 0.053200 -1.705200 10.120400 -77.272633 -3.958013 28.119572 14.956778 -24.903657 -3.575594 -0.702743 -0.870995 -6.641390 -7.125000 0.000000 0.000000 73.764603 -1.821660 7.078669 -8.887941 19.858024 -1.925232 1.147978 -0.553062 6.671955 7.125000 0.000000 0.000000 
1.480639 17.934034 -28.215775 1.832398 -0.388381 2.134771 -21.292534 -6.426356 -7.141919 -0.256305 5.552770 22.749300 0.393501 -0.549331 1.020967 0.000100 -0.064100 -0.176200 15.208730 9.903860 -35.180675 -5.458502 -13.680102 43.836838 2.476621 -10.143920 6.595557 -0.068000 -1.682100 4.628000 2.438202 -1.904776 3.265450 2.854377 -1.144628 -8.625462 2.952325 -5.069871 21.749772 -0.402900 -2.001100 11.149700 -76.197990 -6.806609 29.880937 14.927286 -24.868082 -3.557589 -0.655614 -0.948098 -7.151945 -7.125000 0.000000 0.000000 75.023910 0.150101 4.830721 -8.865270 19.649346 -1.899816 1.126891 -0.589539 7.114721 7.125000 0.000000 0.000000 
1.469695 17.945179 -28.053825 1.980277 -0.090609 2.339864 -21.322671 -6.241591 -6.451491 -0.390816 5.260296 21.987054 0.385020 -0.557022 1.142226 0.003200 -0.367600 -1.010000 14.640870 10.008726 -35.151920 -4.655127 -13.013278 40.883138 2.684561 -10.827216 7.066759 -0.141200 -2.422000 6.673500 3.651331 -2.996098 1.788534 4.497782 -1.558446 -9.846148 2.955866 -3.601056 20.377743 0.125300 -1.548300 9.827300 -77.700057 -3.880769 27.610715 15.325436 -25.382241 -3.726445 -0.615621 -0.981472 -6.562392 -7.125000 0.000000 0.000000 72.949995 -2.540193 7.333559 -8.701387 19.647810 -1.855021 1.148875 -0.624824 6.690335 7.125000 0.000000 0.000000 
1.456643 17.952508 -27.892578 2.160439 0.321220 2.459041 -21.318971 -6.107971 -5.664353 -0.544962 4.933009 21.119635 0.431548 -0.757390 1.304798 0.004600 -0.438300 -1.204300 14.301104 9.699630 -35.331044 -3.872220 -12.263605 37.623516 3.170205 -12.587057 8.746105 -0.000600 0.163200 -0.448500 3.422875 -2.979033 1.720336 4.314514 -1.571425 -9.946202 2.943505 -3.931134 20.448577 0.031900 -1.672200 9.817900 -77.281771 -4.233979 28.518635 15.435452 -25.558176 -3.784634 -0.663210 -0.958953 -6.551269 -7.125000 0.000000 0.000000 73.341517 -2.867152 6.523539 -8.720782 19.670775 -1.863461 1.136468 -0.645002 6.643784 7.125000 0.000000 0.000000 
1.441582 17.989155 -27.730930 2.463715 0.543473 2.635412 -21.450510 -5.982936 -4.915526 -0.695399 4.602417 20.244096 0.427325 -0.811092 1.594431 0.002200 -0.305100 -0.838200 13.265381 10.237893 -34.888246 -3.080845 -11.421387 34.495642 3.326319 -12.971603 8.674631 -0.091900 -1.954900 5.381100 3.263141 -3.051549 2.025423 4.310561 -1.631344 -9.511831 3.018855 -4.066520 20.812229 0.019400 -1.704700 10.085200 -76.928858 -5.110779 29.065966 15.559343 -25.747007 -3.846050 -0.713519 -0.959117 -6.860386 -7.125000 0.000000 0.000000 73.628555 -2.550675 6.150663 -8.799683 19.767029 -1.894225 1.121215 -0.651448 6.527593 7.125000 0.000000 0.000000 
1.424715 17.992971 -27.565768 2.588294 0.761384 2.754766 -21.372233 -5.722587 -4.274872 -0.816195 4.330375 19.518462 0.460623 -0.965685 1.824319 0.007800 -0.571600 -1.570600 12.596926 10.622281 -34.429017 -2.336814 -10.494766 31.213390 3.679155 -14.043330 9.151752 -0.061100 -1.594600 4.386500 2.789305 -2.832593 2.958858 3.740303 -1.600794 -8.513845 2.931438 -4.747042 21.276505 -0.243300 -1.938000 10.690100 -76.138191 -7.300108 30.132606 15.495408 -25.651251 -3.815689 -0.682743 -0.974660 -7.043857 -7.125000 0.000000 0.000000 74.554962 -1.009315 4.447602 -8.751481 19.554304 -1.860306 1.087131 -0.714247 6.788197 7.125000 0.000000 0.000000 
1.407747 17.973995 -27.402914 2.709181 1.153728 2.887448 -21.277649 -5.496962 -3.585438 -0.937577 4.042496 18.775678 0.562397 -1.368757 2.074833 0.011000 -0.677700 -1.862300 12.029919 10.768469 -34.140785 -1.679557 -9.620605 28.167796 4.040802 -15.112095 9.433679 -0.002600 -0.330700 0.908700 3.180219 -3.338077 2.448438 4.299966 -1.814889 -8.909468 2.903748 -4.384903 20.697586 -0.100600 -1.847800 10.177400 -76.530045 -6.605808 29.430996 15.522192 -25.659669 -3.824204 -0.649423 -0.960210 -6.843265 -7.125000 0.000000 0.000000 73.916474 -2.121763 5.450913 -8.774674 19.681369 -1.875565 1.120622 -0.675409 6.300752 7.125000 0.000000 0.000000 
1.392385 17.960741 -27.232631 2.958366 1.434647 3.070029 -21.359125 -5.227305 -3.016960 -1.012100 3.835363 18.272044 0.646140 -1.692617 2.083116 0.020500 -0.924400 -2.540900 11.154282 11.232953 -33.691636 -1.023101 -8.662404 25.110360 4.365303 -15.712856 8.341924 -0.031100 -1.138400 3.129700 3.356968 -3.661921 2.138859 4.668436 -1.954628 -9.068593 3.007630 -4.124004 20.491373 0.031000 -1.754000 9.949300 -76.783519 -6.445392 28.822977 15.443567 -25.534258 -3.785818 -0.645740 -0.945164 -6.530976 -7.125000 0.000000 0.000000 73.649066 -2.786815 6.219256 -8.843941 19.833937 -1.905085 1.163138 -0.598963 6.130940 7.125000 0.000000 0.000000 
1.375517 17.960440 -27.058131 3.324593 1.670056 3.214729 -21.555038 -4.941768 -2.391561 -1.074447 3.638276 17.811354 0.700688 -1.936644 2.125386 0.034100 -1.191300 -3.275400 10.042422 11.908847 -33.058941 -0.427322 -7.676832 22.126606 4.584415 -16.001459 7.239110 -0.122800 -2.258600 6.221000 3.493770 -4.001772 1.990318 5.110221 -2.100288 -9.044616 3.021597 -3.756482 20.430748 0.126500 -1.608400 9.849400 -76.951300 -6.382711 28.290092 15.454485 -25.547745 -3.788178 -0.660121 -0.959637 -6.386040 -7.125000 0.000000 0.000000 73.365754 -3.171909 6.737369 -8.842105 19.869990 -1.911067 1.168949 -0.576130 6.137501 7.125000 0.000000 0.000000 
1.354031 17.964557 -26.889756 3.337624 1.823645 3.293853 -21.330068 -4.696156 -1.773191 -1.157027 3.426374 17.253084 0.730374 -2.088644 2.439286 0.043900 -1.352500 -3.719300 9.243520 12.851211 -32.269524 0.064430 -6.692681 19.293673 4.831699 -16.492395 6.781818 -0.108900 -2.127400 5.858000 3.563799 -4.097372 2.067724 5.209202 -2.154613 -8.928909 2.995765 -3.697250 20.523956 0.127300 -1.582800 9.910700 -76.895024 -6.682390 28.379512 15.532548 -25.656306 -3.824768 -0.673652 -0.959604 -6.414431 -7.125000 0.000000 0.000000 73.434692 -3.009513 6.129459 -8.674382 19.579210 -1.842728 1.171812 -0.595146 6.758339 7.125000 0.000000 0.000000 
1.331942 17.959436 -26.720678 3.348109 2.008224 3.354238 -21.109284 -4.738481 -1.021021 -1.251537 3.198918 16.637570 0.736143 -2.161438 2.777539 0.036300 -1.230200 -3.382500 8.394019 13.910883 -31.485737 0.461714 -5.772638 16.713626 5.113138 -17.068035 6.267801 -0.099600 -2.035400 5.603500 3.506761 -4.074549 2.224338 5.142569 -2.159133 -8.802184 2.873742 -3.897997 20.553868 0.011500 -1.662300 9.988800 -76.636476 -7.188717 28.881705 15.649395 -25.816564 -3.878411 -0.660594 -0.975848 -6.445389 -7.125000 0.000000 0.000000 73.631527 -2.735593 5.366263 -8.510742 19.279271 -1.775588 1.178121 -0.604731 7.202611 7.125000 0.000000 0.000000 
1.308247 17.955721 -26.546078 3.397788 2.369766 3.504658 -20.885310 -4.769055 -0.459699 -1.320355 3.035761 16.197199 0.836892 -2.551899 2.984070 0.052300 -1.475500 -4.058100 7.436411 15.025586 -30.721219 0.787971 -4.905488 14.348680 5.474876 -17.753860 5.165145 -0.152600 -2.516800 6.936200 3.313165 -4.095696 2.407416 4.905425 -2.197631 -8.546797 2.809800 -4.208044 20.668876 -0.115600 -1.773800 10.118500 -76.255829 -7.839382 29.574460 15.714401 -25.918808 -3.908317 -0.661657 -1.013319 -6.685420 -7.125000 0.000000 0.000000 74.069631 -2.575361 4.550916 -8.487262 19.205267 -1.770879 1.159099 -0.606881 7.453612 7.125000 0.000000 0.000000 
1.287062 17.955721 -26.371678 3.495881 2.886846 3.629162 -20.683204 -4.894459 0.076391 -1.364111 2.933298 15.927045 0.972024 -3.076926 3.192825 0.066000 -1.657600 -4.560200 6.465511 16.000181 -29.944004 1.019847 -4.156594 12.247151 6.005951 -19.008682 4.638477 -0.060600 -1.588500 4.369600 3.250297 -4.296792 2.488841 4.863324 -2.307833 -8.389731 2.917888 -4.323762 20.798378 -0.091600 -1.811400 10.207100 -76.133301 -8.297150 29.840389 15.688707 -25.879821 -3.898504 -0.672028 -0.989626 -6.900797 -7.125000 0.000000 0.000000 74.247756 -2.710022 4.382143 -8.492853 19.203896 -1.761640 1.173002 -0.625903 7.549670 7.125000 0.000000 0.000000 
1.265877 17.939858 -26.194869 3.663719 3.185815 3.600655 -20.661680 -4.888170 0.695830 -1.364416 2.893374 15.871082 1.050590 -3.421800 3.326059 0.086900 -1.901900 -5.234600 5.689488 16.682129 -29.259215 1.208134 -3.538433 10.577009 6.235685 -19.446098 3.969563 -0.006700 -0.528000 1.451000 3.621470 -4.699457 2.216992 5.489871 -2.460522 -8.609598 2.899504 -3.845934 20.445183 0.047900 -1.648500 9.908700 -76.628887 -7.806521 29.186776 15.769074 -25.959864 -3.935195 -0.667810 -0.944437 -6.858062 -7.125000 0.000000 0.000000 73.660971 -3.314120 4.779378 -8.325997 18.992223 -1.692084 1.196722 -0.661845 8.045518 7.125000 0.000000 0.000000 
1.242584 17.912347 -26.019666 3.877600 3.359621 3.599367 -20.746858 -4.847753 1.237938 -1.326888 2.925564 16.035439 1.107467 -3.684239 3.323889 0.119800 -2.231300 -6.145300 5.146410 17.029337 -28.874163 1.338200 -3.108137 9.405922 6.224038 -19.347001 3.698272 -0.000700 -0.168100 0.462000 4.481377 -5.474695 1.411813 6.881413 -2.720581 -9.322865 2.646344 -2.802473 19.937350 0.252200 -1.291400 9.383400 -77.731165 -6.201085 27.342117 15.942234 -26.166454 -4.007593 -0.660114 -0.956465 -6.416350 -7.125000 0.000000 0.000000 72.196326 -4.549181 6.527774 -8.180492 18.927359 -1.660280 1.199118 -0.658455 7.685767 7.125000 0.000000 0.000000 
1.215676 17.894676 -25.842857 3.841840 3.565432 3.617053 -20.480041 -4.839963 1.566416 -1.276507 3.026407 16.333948 1.221095 -4.118800 3.387008 0.154500 -2.532600 -6.980100 5.140439 17.035519 -28.703481 1.394723 -2.910977 8.882809 6.123646 -19.160701 4.263480 -0.001000 -0.207600 0.570500 3.776232 -4.863682 2.030317 5.900946 -2.505665 -8.938469 2.554230 -3.821536 20.463940 -0.096100 -1.659200 9.882500 -76.766834 -7.708457 29.271284 15.867377 -26.104023 -3.974486 -0.664150 -1.021441 -6.749394 -7.125000 0.000000 0.000000 73.545472 -3.708786 4.507158 -8.209321 18.841697 -1.667304 1.164858 -0.669231 7.483333 7.125000 0.000000 0.000000 
